<?xml version="1.0" encoding="utf-8"?>
<!-- Generator: Adobe Illustrator 26.3.1, SVG Export Plug-In . SVG Version: 6.00 Build 0)  -->
<svg version="1.1" id="Layer_1" xmlns="http://www.w3.org/2000/svg" xmlns:xlink="http://www.w3.org/1999/xlink" x="0px" y="0px"
	 viewBox="0 0 300 250" style="enable-background:new 0 0 300 250;" xml:space="preserve">
<style type="text/css">
	.st0{fill:#DCEDF9;}
	.st1{fill:#3576BB;}
	.st2{fill:#2F56A3;}
	.st3{fill:#459FD9;}
	.st4{fill:#F8A815;}
	.st5{fill:#F18711;}
	.st6{fill:#FECC50;}
	.st7{fill:#FFFFFF;}
	.st8{fill:#4DB4E7;}
	.st9{fill:#2F3053;}
	.st10{fill:#534F85;}
	.st11{fill:#F5A492;}
	.st12{fill:#14182D;}
	.st13{fill:#F0866C;}
	.st14{fill:#D45D49;}
</style>
<g>
	<g>
		<path class="st0" d="M264.53,231.6c-14.33-10.88-38.83-37.89-6.56-80.29c39.9-52.43-7.88-73.94-53.69-71.7
			c-36.85,1.81-78.32-44.52-119.69-36.24c-54.91,10.99-19.26,58.27-56.49,83.75c-31.75,21.73-18.12,87.92,23.2,104.48H264.53z"/>
	</g>
	<path class="st0" d="M289.29,135.2c-0.22-7.77-7.46-10.79-12.3-5.16c-2.77,3.23-5.42,7.86-5.91,14.05
		c-1.11,13.86,11.02,9.84,15.55,2.42C288.57,143.35,289.4,139.13,289.29,135.2z"/>
	<path class="st0" d="M142.25,32.43c-7.78,0.21-10.8,7.44-5.18,12.29c3.22,2.78,7.85,5.43,14.04,5.94c13.86,1.13,9.87-11,2.45-15.55
		C150.39,33.17,146.18,32.33,142.25,32.43z"/>
	<path class="st0" d="M35.77,107.96c3.06-7.15-2.25-12.93-9-9.84c-3.87,1.77-8.21,4.87-11.26,10.28
		c-6.81,12.12,5.88,13.56,13.1,8.72C31.7,115.06,34.23,111.58,35.77,107.96z"/>
</g>
<g>
	<ellipse class="st0" cx="152.41" cy="235.64" rx="130.99" ry="10.54"/>
</g>
<g>
	<g>
		<g>
			<g>
				<path class="st1" d="M242.19,233.8c0.19,1.02,0.5,1.96,0.91,2.83h21.27c0.84-2,0.84-4.07-0.4-5.84
					c-7.75-11.04,1.81-10.82,3.33-18.36c1.66-8.28-6.22-4-3.83-15.08c3.24-15.02-3.79-22.24-7.34-13.57
					c-3.35,8.18-1.63,11.53-9.84,17.66c-6.81,5.09,5.07,13.23-1.67,21.27C241.74,226.14,241.51,230.24,242.19,233.8z"/>
			</g>
			<g>
				<g>
					<path class="st2" d="M251.35,236.64c2.42-19.46,6.66-40.73,6.72-41.02c0.06-0.29-0.13-0.57-0.42-0.63
						c-0.29-0.06-0.57,0.13-0.63,0.42c-0.06,0.29-4.33,21.68-6.75,41.23H251.35z"/>
				</g>
			</g>
		</g>
		<g>
			<g>
				<path class="st3" d="M277.19,236.64c-0.04-0.16-0.09-0.32-0.14-0.48c-5.6-16.41,6.13-12.7,10.71-21.47
					c5.03-9.62-6.25-7.17,0.69-20c9.4-17.38,3.32-28.81-4.19-19.39c-7.08,8.89-6.16,13.65-18.49,18.27
					c-10.23,3.83,1.51,18.15-9.71,25.65c-4.78,3.2-6.54,8.17-6.98,12.82c-0.15,1.61-0.06,3.15,0.24,4.6H277.19z"/>
			</g>
			<g>
				<g>
					<path class="st1" d="M260.32,236.64c9.83-22.5,21.92-45.71,22.09-46.03c0.18-0.34,0.05-0.75-0.29-0.93
						c-0.34-0.18-0.75-0.05-0.93,0.29c-0.17,0.32-12.47,23.94-22.37,46.67H260.32z"/>
				</g>
			</g>
		</g>
	</g>
	<g>
		<g>
			<g>
				<path class="st1" d="M62.33,233.8c-0.19,1.02-0.5,1.96-0.91,2.83H40.15c-0.84-2-0.84-4.07,0.4-5.84
					c7.75-11.04-1.81-10.82-3.33-18.36c-1.66-8.28,6.22-4,3.83-15.08c-3.24-15.02,3.79-22.24,7.34-13.57
					c3.35,8.18,1.63,11.53,9.84,17.66c6.81,5.09-5.07,13.23,1.67,21.27C62.78,226.14,63.01,230.24,62.33,233.8z"/>
			</g>
			<g>
				<g>
					<path class="st2" d="M53.17,236.64c-2.42-19.46-6.66-40.73-6.72-41.02c-0.06-0.29,0.13-0.57,0.42-0.63
						c0.29-0.06,0.57,0.13,0.63,0.42c0.06,0.29,4.33,21.68,6.75,41.23H53.17z"/>
				</g>
			</g>
		</g>
		<g>
			<g>
				<path class="st3" d="M27.34,236.64c0.04-0.16,0.09-0.32,0.14-0.48c5.6-16.41-6.13-12.7-10.71-21.47
					c-5.03-9.62,6.25-7.17-0.69-20c-9.4-17.38-3.32-28.81,4.19-19.39c7.08,8.89,6.16,13.65,18.49,18.27
					c10.23,3.83-1.51,18.15,9.71,25.65c4.78,3.2,6.54,8.17,6.98,12.82c0.15,1.61,0.06,3.15-0.24,4.6H27.34z"/>
			</g>
			<g>
				<g>
					<path class="st1" d="M44.21,236.64c-9.83-22.5-21.92-45.71-22.09-46.03c-0.18-0.34-0.05-0.75,0.29-0.93
						c0.34-0.18,0.75-0.05,0.93,0.29c0.17,0.32,12.47,23.94,22.37,46.67H44.21z"/>
				</g>
			</g>
		</g>
	</g>
	<g>
		<path class="st3" d="M89.14,236.63h1.62l-2.49-6.96c0.32-2.48,1.33-7.18,4.46-12.42c4.62-7.71,5.8-13.17,1.94-13.14
			c-5.02,0.04-8.61,12.24-7.57,22.3l-5.92-16.57c0.24-2.14,1.12-6.24,4.24-11.39c4.13-6.82,7.31-14.81,2.23-14.37
			c-5.1,0.44-8.75,12.71-7.5,22.88l-4.93-13.82c0.15-1.34,0.69-3.94,2.67-7.21c2.6-4.3,4.61-9.33,1.41-9.06
			c-3.22,0.28-5.53,8.05-4.72,14.48l-1.04-2.93c-0.96-8.83-7.05-18.61-10.77-17.79c-3.72,0.81-0.07,6.42,4.75,11.41
			c2.08,2.15,3.4,4.51,4.33,6.17l2.03,5.69c-3.62-4.42-8.93-7.59-11.23-6.02c-2.65,1.81,2.09,4.44,6.83,6.12
			c2.53,0.9,4.31,1.99,5.47,2.88l6.26,17.54c-5.7-7.88-15.2-13.96-19.15-11.26c-4.21,2.88,3.32,7.05,10.83,9.71
			c4.83,1.71,7.92,3.86,9.68,5.39l4.88,13.66c-5.5-8.61-16.01-15.7-20.21-12.83c-4.21,2.88,3.32,7.05,10.83,9.71
			c5.61,1.99,8.87,4.56,10.43,6.08L89.14,236.63z"/>
	</g>
	<g>
		<path class="st3" d="M211.12,203.59l-1.59-0.29l3.71-6.39c0.13-2.49,0-7.3-2.13-13.03c-3.14-8.42-3.31-14.01,0.48-13.27
			c4.93,0.95,6.25,13.61,3.39,23.3l8.83-15.22c0.15-2.15,0.03-6.34-2.1-11.97c-2.82-7.45-4.5-15.89,0.42-14.54
			c4.93,1.35,6.3,14.09,3.21,23.87l7.36-12.69c0.1-1.35,0.03-4-1.32-7.57c-1.78-4.7-2.84-10.02,0.26-9.16
			c3.12,0.86,3.97,8.92,2.01,15.09l1.56-2.69c2.55-8.51,10.31-17.02,13.83-15.54c3.51,1.48-1.1,6.33-6.74,10.36
			c-2.44,1.74-4.17,3.82-5.38,5.28l-3.03,5.22c4.37-3.69,10.16-5.84,12.14-3.88c2.28,2.27-2.87,3.99-7.82,4.78
			c-2.65,0.42-4.6,1.17-5.91,1.84l-9.35,16.11c7.03-6.71,17.49-10.97,20.87-7.6c3.61,3.6-4.55,6.33-12.42,7.58
			c-5.06,0.81-8.49,2.36-10.5,3.54l-7.28,12.55c6.97-7.47,18.6-12.53,22.2-8.94c3.61,3.6-4.55,6.33-12.42,7.58
			c-5.87,0.93-9.55,2.87-11.37,4.08L211.12,203.59z"/>
	</g>
</g>
<g>
	
		<rect x="150.69" y="177.94" transform="matrix(1.439784e-03 -1 1 1.439784e-03 -38.9498 390.9388)" class="st4" width="51.16" height="74.07"/>
	<polygon class="st5" points="213.35,189.45 213.34,192.73 176.26,225.5 139.27,192.62 139.28,189.34 176.26,222.33 	"/>
	<g>
		<polygon class="st5" points="169.14,215.86 141.35,240.5 139.2,240.5 139.21,239.2 167.55,214.06 		"/>
	</g>
	<g>
		<g>
			<polygon class="st5" points="213.28,239.48 213.27,240.61 210.93,240.6 183.22,215.88 184.81,214.09 			"/>
		</g>
	</g>
	<polygon class="st6" points="139.28,189.34 176.26,222.33 213.35,189.44 	"/>
</g>
<g>
	<g>
		<g>
			<g>
				<path class="st0" d="M168.41,14.23c-0.07,0.01-0.15,0-0.22-0.03c-0.75-0.32-1.19-0.46-1.19-0.47c-0.23-0.08-0.35-0.33-0.28-0.56
					c0.08-0.23,0.33-0.35,0.56-0.28c0.02,0.01,0.47,0.16,1.26,0.49c0.22,0.09,0.33,0.35,0.23,0.58
					C168.71,14.12,168.57,14.21,168.41,14.23z"/>
			</g>
		</g>
		<g>
			<g>
				<path class="st0" d="M190.78,37.77c0.3,0.8,0.58,1.62,0.83,2.44c0.06,0.2,0.26,0.33,0.47,0.31c0.03,0,0.06-0.01,0.08-0.02
					c0.23-0.07,0.36-0.32,0.29-0.55c-0.26-0.84-0.54-1.68-0.85-2.49c-0.08-0.23-0.34-0.34-0.56-0.26
					C190.81,37.29,190.7,37.55,190.78,37.77z"/>
			</g>
			<g>
				<path class="st0" d="M192.3,42.7c0.2,0.82,0.38,1.67,0.54,2.52c0.04,0.23,0.25,0.38,0.48,0.36c0.01,0,0.02,0,0.03,0
					c0.24-0.04,0.4-0.27,0.35-0.51c-0.16-0.87-0.35-1.73-0.55-2.57c-0.06-0.24-0.3-0.38-0.53-0.32
					C192.38,42.23,192.24,42.47,192.3,42.7z"/>
			</g>
			<g>
				<path class="st0" d="M194.15,55.96c0.22-0.02,0.39-0.21,0.39-0.43c0.01-0.88,0.01-1.76-0.02-2.63
					c-0.01-0.24-0.21-0.43-0.45-0.43c-0.25,0.01-0.43,0.21-0.43,0.45c0.03,0.85,0.03,1.72,0.02,2.59c0,0.24,0.19,0.44,0.43,0.45
					C194.11,55.96,194.13,55.96,194.15,55.96z"/>
			</g>
			<g>
				<path class="st0" d="M193.62,47.28c-0.24,0.03-0.41,0.25-0.38,0.49c0.05,0.4,0.1,0.8,0.14,1.19c0.05,0.45,0.09,0.92,0.13,1.38
					c0.02,0.24,0.23,0.42,0.47,0.4c0,0,0.01,0,0.01,0c0.24-0.02,0.41-0.23,0.39-0.47c-0.04-0.47-0.08-0.94-0.13-1.4
					c-0.04-0.4-0.09-0.81-0.14-1.21c-0.03-0.24-0.24-0.4-0.48-0.38C193.62,47.28,193.62,47.28,193.62,47.28z"/>
			</g>
			<g>
				<path class="st0" d="M189.8,35.39c0.08,0.18,0.26,0.28,0.45,0.26c0.04,0,0.09-0.02,0.13-0.04c0.22-0.1,0.32-0.36,0.22-0.58
					c-0.36-0.8-0.74-1.6-1.15-2.37c-0.11-0.21-0.38-0.3-0.59-0.18c-0.21,0.11-0.3,0.38-0.18,0.59
					C189.07,33.83,189.45,34.61,189.8,35.39z"/>
			</g>
			<g>
				<path class="st0" d="M170.53,15.29c0.75,0.39,1.51,0.8,2.26,1.25c0.08,0.05,0.18,0.07,0.27,0.06c0.13-0.01,0.26-0.09,0.33-0.21
					c0.12-0.21,0.05-0.48-0.15-0.6c-0.76-0.45-1.54-0.88-2.31-1.27c-0.22-0.11-0.48-0.02-0.59,0.19
					C170.23,14.91,170.31,15.18,170.53,15.29z"/>
			</g>
			<g>
				<path class="st0" d="M177.07,19.42c0.09,0.07,0.2,0.1,0.31,0.09c0.12-0.01,0.23-0.07,0.3-0.17c0.15-0.19,0.11-0.47-0.08-0.62
					c-0.7-0.53-1.41-1.05-2.14-1.54c-0.2-0.14-0.47-0.08-0.61,0.12c-0.14,0.2-0.08,0.47,0.12,0.61
					C175.68,18.39,176.39,18.9,177.07,19.42z"/>
			</g>
			<g>
				<path class="st0" d="M180.98,22.79c0.1,0.09,0.23,0.14,0.35,0.12c0.1-0.01,0.19-0.05,0.27-0.13c0.17-0.17,0.17-0.45-0.01-0.62
					c-0.62-0.61-1.28-1.21-1.94-1.78c-0.18-0.16-0.46-0.14-0.62,0.05c-0.16,0.18-0.14,0.46,0.05,0.62
					C179.73,21.61,180.37,22.2,180.98,22.79z"/>
			</g>
			<g>
				<path class="st0" d="M184.44,26.61c0.1,0.12,0.25,0.18,0.39,0.16c0.08-0.01,0.16-0.04,0.23-0.09c0.19-0.15,0.22-0.43,0.07-0.62
					c-0.55-0.68-1.12-1.36-1.71-2c-0.16-0.18-0.44-0.19-0.62-0.03c-0.18,0.16-0.19,0.44-0.03,0.62
					C183.35,25.28,183.91,25.94,184.44,26.61z"/>
			</g>
			<g>
				<path class="st0" d="M187.4,30.83c0.09,0.15,0.26,0.23,0.42,0.21c0.06-0.01,0.13-0.03,0.18-0.06c0.21-0.13,0.27-0.4,0.15-0.6
					c-0.46-0.75-0.94-1.49-1.44-2.2c-0.14-0.2-0.41-0.25-0.61-0.11c-0.2,0.14-0.25,0.41-0.11,0.61
					C186.48,29.37,186.96,30.1,187.4,30.83z"/>
			</g>
		</g>
	</g>
	<g>
		<g>
			<polygon class="st6" points="168.4,11.23 170.32,4.11 146.79,4.31 			"/>
			<polygon class="st4" points="146.79,4.31 167.26,12.94 167.32,12.97 168.2,14.43 168.4,11.23 			"/>
			<polygon class="st5" points="168.2,14.43 166.29,14.13 167.32,12.97 			"/>
			<polygon class="st6" points="164.74,11.88 167.32,12.97 162.01,18.95 146.79,4.31 			"/>
		</g>
	</g>
</g>
<g>
	<g>
		<g>
			<g>
				<path class="st3" d="M284.73,54.94c1.89,0,3.42,1.53,3.42,3.42c0,1.89-1.53,3.42-3.42,3.42s-3.42-1.53-3.42-3.42
					C281.31,56.47,282.85,54.94,284.73,54.94z M284.73,60.7c1.29,0,2.35-1.05,2.35-2.35c0-1.29-1.05-2.35-2.35-2.35
					c-1.29,0-2.35,1.05-2.35,2.35C282.38,59.65,283.44,60.7,284.73,60.7z"/>
			</g>
		</g>
		<g>
			<path class="st4" d="M272.42,42.94c1.89,0,3.42,1.53,3.42,3.42s-1.53,3.42-3.42,3.42c-1.89,0-3.42-1.53-3.42-3.42
				S270.54,42.94,272.42,42.94z M272.42,48.71c1.29,0,2.35-1.05,2.35-2.35c0-1.29-1.05-2.35-2.35-2.35c-1.29,0-2.35,1.05-2.35,2.35
				C270.08,47.66,271.13,48.71,272.42,48.71z"/>
		</g>
		<g>
			<g>
				<g>
					<g>
						<path class="st3" d="M268.2,31.83c0.3,0,0.54,0.24,0.54,0.54v2.37c0,0.3-0.24,0.54-0.54,0.54c-0.3,0-0.54-0.24-0.54-0.54
							v-2.37C267.66,32.07,267.9,31.83,268.2,31.83z"/>
					</g>
				</g>
				<g>
					<g>
						<path class="st3" d="M268.2,27.7c0.3,0,0.54,0.24,0.54,0.54v2.36c0,0.3-0.24,0.54-0.54,0.54c-0.3,0-0.54-0.24-0.54-0.54v-2.36
							C267.66,27.94,267.9,27.7,268.2,27.7z"/>
					</g>
				</g>
			</g>
			<g>
				<g>
					<g>
						<path class="st3" d="M264.88,30.95H267c0.3,0,0.54,0.24,0.54,0.54s-0.24,0.54-0.54,0.54h-2.12c-0.3,0-0.54-0.24-0.54-0.54
							S264.58,30.95,264.88,30.95z"/>
					</g>
				</g>
				<g>
					<g>
						<path class="st3" d="M269.39,30.95h2.12c0.3,0,0.54,0.24,0.54,0.54s-0.24,0.54-0.54,0.54h-2.12c-0.3,0-0.54-0.24-0.54-0.54
							S269.1,30.95,269.39,30.95z"/>
					</g>
				</g>
			</g>
		</g>
		<g>
			<g>
				<g>
					<g>
						<g>
							<path class="st4" d="M287.08,45.09c0.3,0,0.54,0.24,0.54,0.54v2.37c0,0.3-0.24,0.54-0.54,0.54c-0.3,0-0.54-0.24-0.54-0.54
								v-2.37C286.54,45.33,286.78,45.09,287.08,45.09z"/>
						</g>
					</g>
					<g>
						<g>
							<path class="st4" d="M287.08,40.95c0.3,0,0.54,0.24,0.54,0.54v2.36c0,0.3-0.24,0.54-0.54,0.54c-0.3,0-0.54-0.24-0.54-0.54
								v-2.36C286.54,41.19,286.78,40.95,287.08,40.95z"/>
						</g>
					</g>
				</g>
				<g>
					<g>
						<g>
							<path class="st4" d="M283.76,44.2h2.12c0.3,0,0.54,0.24,0.54,0.54c0,0.3-0.24,0.54-0.54,0.54h-2.12
								c-0.3,0-0.54-0.24-0.54-0.54C283.22,44.44,283.46,44.2,283.76,44.2z"/>
						</g>
					</g>
					<g>
						<g>
							<path class="st4" d="M288.27,44.2h2.12c0.3,0,0.54,0.24,0.54,0.54c0,0.3-0.24,0.54-0.54,0.54h-2.12
								c-0.3,0-0.54-0.24-0.54-0.54C287.74,44.44,287.98,44.2,288.27,44.2z"/>
						</g>
					</g>
				</g>
			</g>
		</g>
	</g>
	<g>
		<g>
			<g>
				<g>
					<path class="st3" d="M54.61,37.59c1.89,0,3.42,1.53,3.42,3.42c0,1.89-1.53,3.42-3.42,3.42s-3.42-1.53-3.42-3.42
						C51.19,39.12,52.73,37.59,54.61,37.59z M54.61,38.66c-1.29,0-2.35,1.05-2.35,2.35c0,1.29,1.05,2.35,2.35,2.35
						c1.29,0,2.35-1.05,2.35-2.35C56.96,39.71,55.91,38.66,54.61,38.66z"/>
				</g>
			</g>
		</g>
		<g>
			<g>
				<g>
					<g>
						<path class="st4" d="M42.16,26.29c1.89,0,3.42,1.53,3.42,3.42c0,1.89-1.53,3.42-3.42,3.42c-1.89,0-3.42-1.53-3.42-3.42
							C38.74,27.83,40.28,26.29,42.16,26.29z M42.16,27.36c-1.29,0-2.35,1.05-2.35,2.35c0,1.29,1.05,2.35,2.35,2.35
							c1.29,0,2.35-1.05,2.35-2.35C44.51,28.42,43.45,27.36,42.16,27.36z"/>
					</g>
				</g>
			</g>
		</g>
		<g>
			<g>
				<g>
					<g>
						<path class="st3" d="M37.65,45.83c0,0.3,0.24,0.54,0.54,0.54h2.37c0.3,0,0.54-0.24,0.54-0.54c0-0.3-0.24-0.54-0.54-0.54h-2.37
							C37.89,45.3,37.65,45.54,37.65,45.83z"/>
					</g>
				</g>
				<g>
					<g>
						<path class="st3" d="M33.51,45.83c0,0.3,0.24,0.54,0.54,0.54h2.36c0.3,0,0.54-0.24,0.54-0.54c0-0.3-0.24-0.54-0.54-0.54h-2.36
							C33.75,45.3,33.51,45.54,33.51,45.83z"/>
					</g>
				</g>
			</g>
			<g>
				<g>
					<g>
						<path class="st3" d="M36.76,42.52v2.12c0,0.3,0.24,0.54,0.54,0.54s0.54-0.24,0.54-0.54v-2.12c0-0.3-0.24-0.54-0.54-0.54
							S36.76,42.22,36.76,42.52z"/>
					</g>
				</g>
				<g>
					<g>
						<path class="st3" d="M36.76,47.03v2.12c0,0.3,0.24,0.54,0.54,0.54s0.54-0.24,0.54-0.54v-2.12c0-0.3-0.24-0.54-0.54-0.54
							S36.76,46.73,36.76,47.03z"/>
					</g>
				</g>
			</g>
		</g>
		<g>
			<g>
				<g>
					<g>
						<g>
							<path class="st4" d="M62.69,27.36c0,0.3,0.24,0.54,0.54,0.54h2.37c0.3,0,0.54-0.24,0.54-0.54c0-0.3-0.24-0.54-0.54-0.54
								h-2.37C62.93,26.83,62.69,27.07,62.69,27.36z"/>
						</g>
					</g>
					<g>
						<g>
							<g>
								<path class="st4" d="M58.56,27.36c0,0.3,0.24,0.54,0.54,0.54h2.36c0.3,0,0.54-0.24,0.54-0.54c0-0.3-0.24-0.54-0.54-0.54
									h-2.36C58.8,26.83,58.56,27.07,58.56,27.36z"/>
							</g>
						</g>
					</g>
				</g>
				<g>
					<g>
						<g>
							<path class="st4" d="M61.81,24.05v2.12c0,0.3,0.24,0.54,0.54,0.54s0.54-0.24,0.54-0.54v-2.12c0-0.3-0.24-0.54-0.54-0.54
								S61.81,23.75,61.81,24.05z"/>
						</g>
					</g>
					<g>
						<g>
							<path class="st4" d="M61.81,28.56v2.12c0,0.3,0.24,0.54,0.54,0.54s0.54-0.24,0.54-0.54v-2.12c0-0.3-0.24-0.54-0.54-0.54
								S61.81,28.26,61.81,28.56z"/>
						</g>
					</g>
				</g>
			</g>
		</g>
	</g>
	<g>
		<g>
			<g>
				<g>
					<path class="st4" d="M37.16,83.72H30.6c-2.35,0-4.26-1.91-4.26-4.26v-6.56c0-2.35,1.91-4.26,4.26-4.26h6.56
						c2.35,0,4.26,1.91,4.26,4.26v6.56C41.42,81.81,39.51,83.72,37.16,83.72z"/>
				</g>
			</g>
		</g>
		<g>
			<path class="st7" d="M38.15,73.07c-0.03-0.1-0.05-0.21-0.08-0.31c-0.09-0.37-0.27-0.69-0.51-0.98c-0.18-0.2-0.38-0.38-0.61-0.51
				c-0.32-0.18-0.68-0.11-0.92,0.18c-0.42,0.51-0.84,1.02-1.25,1.53c-0.25,0.31-0.21,0.74,0.1,1.02c0.23,0.2,0.46,0.39,0.7,0.58
				c0.03,0.02,0.07,0.04,0.09,0.06c-0.56,1.5-1.5,2.66-2.86,3.49c-0.16-0.14-0.34-0.28-0.51-0.42c-0.09-0.07-0.18-0.15-0.27-0.22
				c-0.27-0.21-0.59-0.23-0.87-0.04c-0.09,0.06-0.16,0.15-0.23,0.23c-0.38,0.46-0.75,0.92-1.14,1.38c-0.12,0.15-0.2,0.31-0.22,0.49
				c0.01,0.07,0.01,0.14,0.02,0.2c0.07,0.12,0.11,0.25,0.2,0.34c0.22,0.22,0.47,0.42,0.76,0.55c0.34,0.15,0.7,0.25,1.07,0.22
				c0.25-0.02,0.49-0.07,0.73-0.14c0.61-0.17,1.17-0.46,1.7-0.82c0.52-0.35,1-0.76,1.43-1.21c0.59-0.61,1.11-1.28,1.59-1.98
				c0.37-0.55,0.7-1.14,0.91-1.77c0.11-0.32,0.18-0.65,0.2-0.99c0.01-0.14,0.01-0.27,0.02-0.41C38.18,73.38,38.16,73.22,38.15,73.07
				z"/>
		</g>
	</g>
	<g>
		<g>
			<g>
				<path class="st4" d="M270.06,171.26h-8.52c-1.88,0-3.4-1.52-3.4-3.4v-8.52c0-1.88,1.52-3.4,3.4-3.4h8.52
					c1.88,0,3.4,1.52,3.4,3.4v8.52C273.46,169.73,271.93,171.26,270.06,171.26z"/>
			</g>
		</g>
		<g>
			<path class="st7" d="M270.69,163.31c0,1.91-1.07,2.9-2.35,2.9c-0.75,0-1.3-0.29-1.58-0.87c-0.28,0.55-0.76,0.87-1.52,0.87
				c-1.08,0-2.12-0.95-2.12-2.49c0-1.54,1.01-2.48,2.12-2.48c0.53,0,0.94,0.17,1.23,0.49v-0.4h1.92v2.86c0,0.42,0.17,0.55,0.39,0.55
				c0.28,0,0.51-0.28,0.51-1.4c0-1.81-1.35-3.09-3.41-3.09c-2.05,0-3.43,1.44-3.43,3.34c0,1.96,1.35,3.36,3.39,3.36
				c0.66,0,1.34-0.13,2.02-0.44l0.42,1.23c-0.6,0.29-1.55,0.48-2.44,0.48c-3.01,0-4.94-2.01-4.94-4.63c0-2.58,1.93-4.61,4.98-4.61
				C268.76,158.98,270.69,160.91,270.69,163.31z M266.51,163.72c0-0.6-0.31-0.91-0.72-0.91c-0.41,0-0.71,0.31-0.71,0.91
				c0,0.61,0.3,0.92,0.71,0.92C266.2,164.64,266.51,164.33,266.51,163.72z"/>
		</g>
	</g>
</g>
<g>
	<g>
		<g>
			<path class="st3" d="M268.1,72.95v48.86c0,4.56-3.7,8.26-8.26,8.26H142.77V46.54h98.91c7.3,0,13.9,2.96,18.68,7.74
				C265.14,59.05,268.1,65.66,268.1,72.95z"/>
		</g>
		<g>
			<path class="st8" d="M268.1,111.47v10.35c0,4.56-3.7,8.26-8.26,8.26h-97.85v-18.61H268.1z"/>
		</g>
		<g>
			<path class="st1" d="M170.37,70.07v60h-52.93v-60c0-13.03,10.57-23.6,23.6-23.6h5.87C159.89,46.55,170.37,57.09,170.37,70.07z"/>
		</g>
		<g>
			<path class="st2" d="M170.37,70.07v60h-47.05v-60c0-12.99,10.49-23.52,23.45-23.6h0.15C159.89,46.55,170.37,57.09,170.37,70.07z"
				/>
		</g>
		<g>
			<g>
				<path class="st1" d="M117.45,130.08l-20.15,35.49c-7.4,13.03-2.84,23.6,10.2,23.6h5.87c13.01-0.08,29.48-10.61,36.86-23.6
					l20.15-35.49H117.45z"/>
			</g>
			<rect x="117.45" y="126.65" class="st1" width="52.93" height="3.43"/>
		</g>
	</g>
	<g>
		<g>
			<g>
				<circle class="st1" cx="225.68" cy="67.81" r="8.49"/>
			</g>
			<circle class="st9" cx="225.68" cy="66.2" r="8.49"/>
			<path class="st10" d="M225.68,71.13c-2.72,0-4.93-2.21-4.93-4.93c0-2.72,2.21-4.93,4.93-4.93c2.72,0,4.93,2.21,4.93,4.93
				C230.61,68.91,228.4,71.13,225.68,71.13z"/>
		</g>
		<g>
			<path class="st4" d="M227.1,9.43v56.59c0,0.78-0.64,1.42-1.42,1.42c-0.78,0-1.42-0.64-1.42-1.42V9.43H227.1z"/>
			<polygon class="st9" points="247.25,19.97 224.26,19.97 224.26,7.17 247.25,7.17 242.02,13.57 			"/>
			<polygon class="st5" points="227.1,19.97 227.1,20.74 224.26,21.74 224.26,19.97 			"/>
		</g>
	</g>
	<g>
		<rect x="194.03" y="130.09" class="st1" width="11.31" height="108.32"/>
		<g>
			<path class="st3" d="M224.77,240.65H174.6v-0.62c0-4.82,3.91-8.74,8.74-8.74h32.69c4.82,0,8.74,3.91,8.74,8.74V240.65z"/>
		</g>
		<g>
			<polygon class="st2" points="205.34,130.09 205.34,133.02 194.03,136.98 194.03,130.09 			"/>
		</g>
	</g>
</g>
<g>
	<g>
		<g>
			<path class="st1" d="M101.87,90.63c4.2,15.27,18.03,19.53,18.03,19.53c5.48-1.16,8.96-2.81,12.41-4.71
				c-1.02-2.45-1.47-4.93-2.03-8.16c-5.09,1.42-9.49,2.17-9.49,2.17c-10.75-4.98-17.27-28.84-17.27-28.84
				C97.12,76.69,101.87,90.63,101.87,90.63z"/>
		</g>
		<g>
			<path class="st11" d="M65.7,213.33l-4.55,6.08c0,0,0.83,2.72,4.2,4.82l5.44-7L65.7,213.33z"/>
			<g>
				<g>
					<path class="st4" d="M64.6,222.35c0,0,2.13-0.46,2.86,0.28c0.73,0.74,2.56,10.75,4.27,12.94c1.71,2.19-0.01,3.35-1.06,3.8
						c-1.05,0.44-16.13-14.62-16.13-14.62s3.73-5.15,5.53-6.15C61.85,217.59,62.69,221.29,64.6,222.35z"/>
				</g>
				<g>
					<g>
						<path class="st7" d="M64.88,228.19c-0.1-0.04-0.18-0.11-0.22-0.21c-0.08-0.2,0.01-0.43,0.21-0.52
							c0.07-0.03,1.62-0.71,2.87-0.48c1.66,0.3,2.07,1.73,2.09,1.79c0.06,0.21-0.06,0.43-0.27,0.49c-0.2,0.06-0.42-0.06-0.48-0.27
							c-0.01-0.04-0.31-1.01-1.49-1.23c-1.01-0.19-2.41,0.42-2.43,0.43C65.07,228.22,64.97,228.22,64.88,228.19z"/>
					</g>
					<g>
						<path class="st7" d="M64.63,226.59c-0.09-0.04-0.18-0.11-0.22-0.21c-0.08-0.2,0.01-0.43,0.21-0.52
							c0.07-0.03,1.62-0.71,2.87-0.48c1.66,0.3,2.07,1.73,2.09,1.79c0.06,0.21-0.06,0.43-0.27,0.49c-0.2,0.06-0.42-0.06-0.48-0.27
							c-0.01-0.04-0.31-1.01-1.49-1.23c-1.02-0.19-2.41,0.42-2.42,0.43C64.82,226.62,64.72,226.62,64.63,226.59z"/>
					</g>
					<g>
						<path class="st7" d="M65.58,229.87c-0.1-0.04-0.18-0.11-0.22-0.21c-0.08-0.2,0.01-0.43,0.21-0.52
							c0.07-0.03,1.62-0.71,2.87-0.48c1.66,0.3,2.07,1.73,2.09,1.79c0.06,0.21-0.06,0.43-0.27,0.49c-0.2,0.06-0.42-0.06-0.48-0.27
							c-0.01-0.04-0.31-1.01-1.49-1.23c-1.02-0.19-2.41,0.42-2.42,0.43C65.77,229.91,65.67,229.91,65.58,229.87z"/>
					</g>
				</g>
			</g>
		</g>
		<g>
			<path class="st11" d="M93.61,223.78l0.69,7.57c0,0,2.44,1.47,6.34,0.77l-0.64-8.84L93.61,223.78z"/>
			<g>
				<g>
					<path class="st4" d="M99.26,231.05c0,0,1.33-1.84,2.41-1.78c1.08,0.06,9.49,6.55,12.34,7.06c2.86,0.5,2.33,2.61,1.83,3.69
						c-0.51,1.08-22.62,0.46-22.62,0.46s-0.81-7.14-0.12-9.17C93.8,229.28,97.04,231.56,99.26,231.05z"/>
				</g>
				<g>
					<g>
						<path class="st7" d="M104.73,235.87c-0.1,0.03-0.21,0.03-0.3-0.03c-0.19-0.1-0.27-0.34-0.17-0.53c0.03-0.06,0.8-1.58,1.9-2.2
							c1.47-0.82,2.7,0.01,2.75,0.05c0.18,0.12,0.23,0.37,0.11,0.55c-0.12,0.18-0.36,0.22-0.54,0.1c-0.03-0.02-0.89-0.58-1.93,0
							c-0.9,0.5-1.59,1.86-1.59,1.88C104.9,235.77,104.82,235.84,104.73,235.87z"/>
					</g>
					<g>
						<path class="st7" d="M103.52,234.8c-0.1,0.03-0.21,0.03-0.3-0.03c-0.19-0.1-0.27-0.34-0.17-0.53c0.03-0.06,0.8-1.58,1.9-2.2
							c1.47-0.82,2.7,0.01,2.75,0.05c0.18,0.12,0.23,0.37,0.11,0.55c-0.12,0.18-0.36,0.22-0.54,0.1c-0.03-0.02-0.89-0.58-1.93,0
							c-0.9,0.51-1.59,1.86-1.59,1.88C103.69,234.7,103.61,234.76,103.52,234.8z"/>
					</g>
					<g>
						<path class="st7" d="M106.34,236.72c-0.1,0.03-0.21,0.03-0.3-0.03c-0.19-0.1-0.27-0.34-0.17-0.53c0.03-0.06,0.8-1.58,1.9-2.2
							c1.47-0.82,2.7,0.01,2.75,0.05c0.18,0.12,0.23,0.37,0.11,0.55c-0.12,0.18-0.36,0.22-0.54,0.1c-0.03-0.02-0.89-0.58-1.93,0
							c-0.9,0.51-1.59,1.86-1.59,1.88C106.51,236.63,106.44,236.69,106.34,236.72z"/>
					</g>
				</g>
			</g>
		</g>
		<g>
			<path class="st12" d="M89.37,141.65l-4.59,38.03c0,0-4.12,5.59-8.05,12.75c-3.3,6.01-12.09,21.59-12.09,21.59l5.32,4.05
				l29.11-30.17l7.75-46.63L89.37,141.65z"/>
			<path class="st9" d="M71.26,217.98c-0.48,1.2-1.37,2.02-2.41,2.7l-6.17-5.21c0.52-1.09,1.23-2.04,2.1-2.86L71.26,217.98z"/>
		</g>
		<g>
			<path class="st9" d="M65.86,143.22c0,0,8.2,20.16,18.85,35.87c0,0,1.59,15.3,4.31,23.44c1.19,3.57,3.5,20.46,3.5,20.46l8.08-0.37
				l-2.09-46.97l-8.55-34.02L65.86,143.22z"/>
			<path class="st10" d="M101.35,222.35c0.51,1.4,0.37,2.8,0,4.19L92,226.81c-0.4-1.34-0.52-2.71-0.39-4.09L101.35,222.35z"/>
		</g>
		<g>
			<g>
				<g>
					<g>
						<g>
							<path class="st3" d="M103.51,70.62c1.22,1.52,3.66,17.01,4.05,32.74c0.01,0.36,0.02,0.72,0.03,1.09
								c0.04,1.66,0.08,3.34,0.11,5.01c0.03,1.65,0.06,3.3,0.09,4.93c0.04,2.68,0.08,5.31,0.11,7.85c0,0.29,0.01,0.57,0.01,0.86
								c0.03,2.47,0.05,4.85,0.07,7.06c0,0.29,0,0.58,0.01,0.86c0.03,3.33,0.04,6.27,0.04,8.63v0c0,0.33,0,0.65,0,0.95
								c0,1.65,0,2.96-0.02,3.85c-3.92,1.05-7.83,1.82-11.74,2.29c-0.1,0.01-0.21,0.03-0.31,0.04c-0.18,0.02-0.35,0.04-0.52,0.06
								c-0.04,0-0.08,0.01-0.13,0.01c-0.68,0.08-1.35,0.14-2.04,0.2c-3.36,0.28-6.73,0.34-10.09,0.18c-0.3-0.01-0.59-0.03-0.88-0.05
								c-0.26-0.01-0.53-0.03-0.8-0.05c-0.12-0.01-0.24-0.01-0.36-0.02c-0.23-0.02-0.45-0.03-0.67-0.05
								c-4.94-0.4-9.89-1.27-14.83-2.6c-0.03-1.95-0.05-5.91-0.06-11.03c0-0.28,0-0.56,0-0.85c-0.01-5.64,0.02-12.57,0.08-19.7
								c0.01-0.56,0.01-1.13,0.02-1.69c0.01-0.65,0.01-1.31,0.02-1.97c0-0.11,0-0.22,0-0.33c0-0.15,0.01-0.31,0.01-0.46
								c0-0.31,0.01-0.62,0.01-0.93c0.01-0.45,0.01-0.9,0.02-1.35c0-0.34,0.01-0.68,0.01-1.02c0.01-0.68,0.02-1.36,0.03-2.03
								c0.24-14.16,0.72-27.17,1.63-30.48c0.08-0.31,0.17-0.53,0.26-0.66c0.1-0.15,0.22-0.3,0.35-0.45
								c0.17-0.19,0.37-0.39,0.59-0.59c1.52-1.4,4.15-3.02,6.81-4.56c0.31-0.18,0.62-0.36,0.93-0.53c0.05-0.03,7.25-2.45,7.29-2.48
								l7.53,0.53C91.19,63.84,101.72,68.39,103.51,70.62z"/>
						</g>
					</g>
				</g>
			</g>
			<g>
				<g>
					<path class="st1" d="M73.12,91.02c0-0.37-0.48-0.54-0.7-0.24c-3.03,3.99-4.85,8.33-5.93,11.77c-0.28,0.88-0.52,1.74-0.72,2.55
						c0,0.34-0.01,0.68-0.01,1.02c-0.01,0.45-0.01,0.9-0.02,1.35c-0.01,0.31-0.01,0.62-0.01,0.93c0,0.16,0,0.31-0.01,0.46
						c0,0.11,0,0.22,0,0.33c0.28-1.72,0.76-3.97,1.53-6.44c1.06-3.36,2.85-7.61,5.8-11.51C73.09,91.19,73.12,91.11,73.12,91.02
						L73.12,91.02z"/>
				</g>
			</g>
			<g>
				<g>
					<path class="st1" d="M74.65,132.12C74.65,132.12,74.65,132.12,74.65,132.12c8.14-0.04,15.08-3.74,19.47-6.84
						c4.75-3.35,7.63-6.75,7.66-6.78c0.14-0.17,0.12-0.41-0.05-0.55c-0.17-0.14-0.41-0.12-0.55,0.05c-0.03,0.03-2.85,3.36-7.53,6.66
						c-4.3,3.03-11.08,6.65-19,6.68c-0.22,0-0.39,0.18-0.39,0.39C74.26,131.94,74.43,132.12,74.65,132.12z"/>
				</g>
			</g>
			<g>
				<g>
					<path class="st1" d="M83.13,134.88c7.06,0,14.1-4.02,14.42-4.21c0.19-0.11,0.25-0.35,0.14-0.53c-0.11-0.19-0.35-0.25-0.53-0.14
						c-0.08,0.05-8.36,4.78-15.71,4.02c-0.22-0.02-0.41,0.13-0.43,0.35c-0.02,0.21,0.13,0.41,0.35,0.43
						C81.95,134.85,82.54,134.88,83.13,134.88z"/>
				</g>
			</g>
			<g>
				<g>
					<path class="st1" d="M81.1,76.21c6.8-1.89,12.51-7.64,12.77-7.91c0.15-0.15,0.15-0.4-0.01-0.55c-0.15-0.15-0.4-0.15-0.55,0.01
						c-0.07,0.07-6.78,6.84-14.06,8.07c-0.22,0.03-0.36,0.24-0.32,0.45c0.04,0.21,0.24,0.36,0.45,0.32
						C79.96,76.5,80.54,76.37,81.1,76.21z"/>
				</g>
			</g>
		</g>
		<g>
			<g>
				<path class="st9" d="M75.41,44.46c0,6.88,4.23,11.62,11.11,11.62s11.67-5.1,11.67-11.97s-4.07-12.09-10.95-12.09
					C79,32.02,75.41,37.58,75.41,44.46z"/>
				<path class="st9" d="M75.57,46.29c0,0-2.4-3.63-1.13-6.44c1.32-2.9,0.65-2.26,0.98-4.44c0.33-2.18,1.91-3.08,3.81-3.39
					c1.9-0.31,0.6-2.5,3.23-3.29c2.63-0.79,4.74,1.96,6.44,0.73c1.69-1.23,5.85-1.84,7.02,0s2.21,1.83,3.45,1.77
					c1.5-0.07,3.51,2.29,2.15,4.47c-1.36,2.18-3.64,1.31-3.32,2.81c0.32,1.5,2.25,4.14-0.34,7.5
					C97.07,47.02,75.57,46.29,75.57,46.29z"/>
				<g>
					<path class="st13" d="M76.96,47.42c0,0-1.91-2.55-3.33-0.44c-1.42,2.11,0.59,8.33,4.07,6.81L76.96,47.42z"/>
					<g>
						<path class="st14" d="M76.93,51.87c-0.13,0-0.25-0.09-0.28-0.21c-0.54-1.92-2.53-2.7-2.55-2.71
							c-0.15-0.06-0.23-0.23-0.17-0.38c0.06-0.15,0.23-0.23,0.38-0.17c0.09,0.04,2.29,0.89,2.91,3.1c0.04,0.16-0.05,0.32-0.2,0.36
							C76.99,51.87,76.96,51.87,76.93,51.87z"/>
					</g>
					<g>
						<path class="st14" d="M74.92,50.9c-0.05,0-0.11-0.02-0.16-0.05c-0.14-0.09-0.18-0.27-0.09-0.41c0.01-0.02,0.37-0.56,1.1-0.89
							c0.15-0.07,0.32,0,0.39,0.15c0.07,0.15,0,0.32-0.15,0.39c-0.57,0.25-0.85,0.67-0.85,0.67C75.12,50.85,75.02,50.9,74.92,50.9z"
							/>
					</g>
				</g>
				<g>
					<path class="st13" d="M96.65,47.42c0,0,1.91-2.55,3.33-0.44c1.42,2.11-0.59,8.33-4.07,6.81L96.65,47.42z"/>
					<g>
						<g>
							<g>
								<path class="st14" d="M96.67,51.87c0.13,0,0.25-0.09,0.28-0.21c0.54-1.92,2.53-2.7,2.55-2.71c0.15-0.06,0.23-0.23,0.17-0.38
									c-0.06-0.15-0.23-0.23-0.38-0.17c-0.09,0.04-2.29,0.89-2.91,3.1c-0.04,0.16,0.05,0.32,0.2,0.36
									C96.62,51.87,96.65,51.87,96.67,51.87z"/>
							</g>
						</g>
					</g>
					<g>
						<g>
							<path class="st14" d="M98.68,50.9c0.05,0,0.11-0.02,0.16-0.05c0.14-0.09,0.18-0.27,0.09-0.41c-0.01-0.02-0.37-0.56-1.1-0.89
								c-0.15-0.07-0.32,0-0.39,0.15c-0.07,0.15,0,0.32,0.15,0.39c0.57,0.25,0.85,0.67,0.85,0.67C98.49,50.85,98.59,50.9,98.68,50.9
								z"/>
						</g>
					</g>
				</g>
				<path class="st11" d="M91.51,59.07v6.55c0,0-1.02,1.53-3.07,1.77c-2.87,0.34-5.98-2.69-5.98-2.69V59.5L91.51,59.07z"/>
				<path class="st13" d="M91.51,59.07v2.75c-1.67,1.86-4.65,2.32-9.05,1.67V59.5L91.51,59.07z"/>
				<path class="st11" d="M75.94,47.31c0.03,0.36,0.05,0.72,0.09,1.09c0.09,0.92,0.22,1.87,0.39,2.81c0.01,0.03,0.01,0.07,0.02,0.09
					c0.83,4.56,2.7,9.05,6.72,10.49c9.12,3.26,12.38-4.56,13.68-9.12c0.14-0.51,0.27-1.07,0.39-1.67c0-0.02,0.01-0.05,0.01-0.08
					c0.13-0.67,0.24-1.39,0.33-2.13c0.07-0.55,0.13-1.1,0.18-1.67c0.13-1.36,0.22-2.73,0.28-3.94c0.13-2.77-1.53-5.32-4.12-6.32
					c-3.74-1.44-9.42-2.58-14.8,0.47c-1.99,1.13-3.23,3.21-3.28,5.5C75.8,44.09,75.82,45.64,75.94,47.31z"/>
				<path class="st9" d="M75.94,47.31c0.03,0.36,0.05,0.72,0.09,1.09c0.09,0.92,0.22,1.87,0.39,2.81c0.01,0.03,0.01,0.07,0.02,0.09
					c0.83,4.56,2.7,9.05,6.72,10.49c9.12,3.26,12.38-4.56,13.68-9.12c0.14-0.51,0.27-1.07,0.39-1.67c0-0.02,0.01-0.05,0.01-0.08
					c0.13-0.67,0.24-1.39,0.33-2.13c0.07-0.55,0.13-1.1,0.18-1.67l-1.37,0.36c-0.39,2.06-0.98,5.07-1.74,6.47
					c-1.2-2.92-7.84-0.51-7.84-0.51s-5.93-2.11-7.93-0.01c-0.96-2.43-1.8-5.95-1.8-5.95L75.94,47.31z M86.61,54.52
					c4.78-0.66,5.97,0.57,6.2,1.98c-1.3,1.36-2.75,2.15-4.08,2.45c-1.64,0.37-4.97,0.34-7.4-1.57
					C81.09,56.28,80.82,53.06,86.61,54.52z"/>
				<path class="st9" d="M83.7,47.79c0,0.66-0.34,1.2-0.76,1.2c-0.42,0-0.76-0.54-0.76-1.2c0-0.66,0.34-1.2,0.76-1.2
					C83.36,46.59,83.7,47.13,83.7,47.79z"/>
				<path class="st9" d="M92.52,47.79c0,0.66-0.34,1.2-0.76,1.2c-0.42,0-0.76-0.54-0.76-1.2c0-0.66,0.34-1.2,0.76-1.2
					C92.18,46.59,92.52,47.13,92.52,47.79z"/>
				<path class="st9" d="M93.92,43.68c0,0-2.4-0.95-4.25-0.15l0.18,1.03c0,0,2.71-0.23,4.08,0.32
					C94.05,44.49,94.07,44.09,93.92,43.68z"/>
				<path class="st9" d="M79.94,43.68c0,0,2.4-0.95,4.25-0.15L84,44.56c0,0-2.71-0.23-4.08,0.32C79.8,44.49,79.78,44.09,79.94,43.68
					z"/>
				<g>
					<path class="st13" d="M87.1,52.97c-0.49,0.06-1-0.07-1.08-0.09c-0.16-0.04-0.25-0.2-0.21-0.36c0.04-0.16,0.2-0.25,0.36-0.21
						c0.28,0.07,0.93,0.17,1.18-0.03c0.05-0.04,0.11-0.11,0.11-0.29c-0.02-1.03-0.72-4.41-0.72-4.45c-0.03-0.16,0.07-0.31,0.23-0.35
						c0.16-0.03,0.31,0.07,0.35,0.23c0.03,0.14,0.71,3.47,0.73,4.56c0.01,0.41-0.18,0.64-0.34,0.76
						C87.54,52.88,87.32,52.94,87.1,52.97z"/>
				</g>
				<path class="st7" d="M83.08,54.73c0.24,1.21,1.04,3.43,3.73,3.43c2.7,0,3.45-2.03,3.71-3.43H83.08z"/>
				<path class="st9" d="M97.72,47.47h-1.33c0.15-1.34-0.34-2.95-0.74-4.03c-0.91-2.44,1.03-3.52-0.54-4.74
					c-1.57-1.23-5.47-0.7-8.18-0.79c-2.73-0.09-7.11-0.05-8.18,0.2c-1.07,0.24-0.48,2.02-0.09,3.39c0.39,1.37-1.31,2.89-1.59,4.31
					c-0.08,0.41-0.06,1.01,0,1.67h-1.11c-0.13-1.73-0.15-3.34-0.13-4.64c0.04-2.28,1.29-4.37,3.28-5.5
					c5.38-3.05,11.06-1.91,14.8-0.48c2.6,1,4.26,3.55,4.12,6.32C97.97,44.5,97.87,45.99,97.72,47.47z"/>
			</g>
		</g>
		<g>
			
				<rect x="70.66" y="72.57" transform="matrix(0.6369 -0.771 0.771 0.6369 -36.6234 119.0127)" class="st4" width="74.73" height="51.62"/>
			<polygon class="st5" points="111.93,53.14 114.48,55.25 116.21,105.15 66.88,112.86 64.33,110.76 113.75,103.11 			"/>
			<g>
				<polygon class="st5" points="104.14,104.51 105.51,141.96 104.13,143.63 103.12,142.79 101.72,104.6 				"/>
			</g>
			<g>
				<g>
					<polygon class="st5" points="150.85,85.29 151.73,86.02 150.22,87.83 113.19,93.56 112.82,91.17 					"/>
				</g>
			</g>
			<polygon class="st6" points="64.33,110.76 113.75,103.11 111.93,53.14 			"/>
		</g>
		<g>
			<path class="st11" d="M103.45,125.28h1.37c1.23,0,2.16-0.72,2.71-1.82c0.24-0.48,0.57-1.37,0.8-1.68
				c0.64-0.86,2.39-2.29,3.05-2.34c0.66-0.04,0.54,1.18,0.07,1.71c-0.46,0.54-1.19,1.22-1.59,1.97c-0.39,0.76,3.21,2.29,4.67,2.65
				c1.46,0.36,4.03-0.43,4.28,0.78c0.25,1.21-1.68,1.39-1.68,1.39s0.56,1.09-1.03,2c0,0,0.29,1.07-0.75,1.64
				c0,0,0.12,1.36-1.08,1.71c-1.2,0.36-4.95,1.44-12.29-3.02L103.45,125.28z"/>
			<g>
				<g>
					<g>
						<g>
							<g>
								<path class="st1" d="M78.24,94.09c2.77,10.48,5.5,15.12,5.5,15.12s3.11,4.76,9.51,9.26c4.44,3.13,11.58,6.82,11.58,6.82
									c-1.23,1.6-2.1,4.77-1.63,5.71c-14.84,0-27.82-14.06-27.82-14.06C64.99,98.86,64.31,84.14,64.48,78.78
									c0.06-1.89,0.61-3.74,1.65-5.31c0.54-0.81,1.21-1.57,2-1.94c0,0,4.45,1.66,6,6.88C75.68,83.64,78.24,94.09,78.24,94.09z"/>
							</g>
						</g>
					</g>
				</g>
			</g>
		</g>
		<path class="st11" d="M144.33,95.02c0,0-3.3-1.17-4.82-0.54c-1.52,0.63,2.69,2.91,2.69,2.91s-5.1-2.71-5.98-1.62
			c-0.88,1.09,4,3.87,4,3.87s-3.73-1.31-4.49-0.54c-0.76,0.77,2.72,2.95,2.72,2.95s-3.06-0.74-3.7-0.22
			c-0.64,0.52,2.08,2.7,3.8,3.28c1.72,0.58,2-1.85,2-1.85s1.62-1.43,1.41-2.42c0,0,1.68-1.13,1.8-2.29
			C143.76,98.54,146.13,96.45,144.33,95.02z"/>
	</g>
</g>
</svg>
