<?xml version="1.0" encoding="utf-8"?>
<!-- Generator: Adobe Illustrator 27.9.0, SVG Export Plug-In . SVG Version: 6.00 Build 0)  -->
<svg version="1.1" id="Layer_1" xmlns="http://www.w3.org/2000/svg" xmlns:xlink="http://www.w3.org/1999/xlink" x="0px" y="0px"
	 viewBox="0 0 136 127" style="enable-background:new 0 0 136 127;" xml:space="preserve">
<style type="text/css">
	.st0{fill:#FFFFFF;}
	.st1{fill:#FFCF01;}
</style>
<g>
	<path class="st0" d="M28.4,112.4c2.3,0,4.3,1.6,4.3,3.9c0,2.1-1.6,3.9-4.2,3.9c-2.3,0-4.3-1.6-4.3-3.9
		C24.2,114.3,25.8,112.4,28.4,112.4 M28.8,119.9c0.7,0,2.3-0.4,2.3-3.1c0-2.1-1.2-4-3-4c-0.7,0-2.3,0.4-2.3,3.1
		C25.8,118,26.9,119.9,28.8,119.9"/>
	<path class="st0" d="M33.9,119.8c0.7,0,0.9-0.3,0.9-0.9v-5.2c0-0.6-0.2-0.9-0.9-0.9v-0.3c0.4,0,0.9,0,1.1,0c0.2,0,0.5,0,0.9,0
		l5,5.6l0-4.4c0-0.6-0.1-0.9-0.9-0.9v-0.3c0.4,0,0.8,0,1.1,0c0.3,0,0.8,0,1.2,0v0.3c-0.7,0-0.9,0.3-0.9,0.9v6.5h-0.4l-5.8-6.3l0.1,5
		c0,0.8,0.2,0.9,0.9,1v0.3c-0.3,0-0.9,0-1.1,0c-0.3,0-0.8,0-1.1,0V119.8z"/>
	<path class="st0" d="M54.3,114.9H54c-0.2-1.5-1.5-2.1-2.8-2.1c-1.4,0-2.8,1.1-2.8,3.2c0,2,1.1,3.8,3,3.8c0.8,0,2-0.5,3-1.9l0.1,1.3
		c-1.1,0.8-2.3,1.1-3.4,1.1c-3.7,0-4.2-2.9-4.2-4c0-1.7,1.2-3.8,4.5-3.8c0.7,0,1.9,0.2,2.9,0.6V114.9z"/>
	<path class="st0" d="M60.1,112.4c2.3,0,4.3,1.6,4.3,3.9c0,2.1-1.6,3.9-4.2,3.9c-2.3,0-4.3-1.6-4.3-3.9
		C55.9,114.3,57.4,112.4,60.1,112.4 M60.5,119.9c0.7,0,2.3-0.4,2.3-3.1c0-2.1-1.2-4-3-4c-0.7,0-2.3,0.4-2.3,3.1
		C57.4,118,58.6,119.9,60.5,119.9"/>
	<path class="st0" d="M65.6,119.8c0.7,0,0.9-0.3,0.9-0.9v-5.2c0-0.6-0.2-0.9-0.9-0.9v-0.3c0.9,0,1.2,0,1.6,0c0.3,0,0.7,0,1.6,0v0.3
		c-0.7,0-0.9,0.3-0.9,0.9v5.2c0,0.6,0.3,0.7,1.2,0.7c1.4,0,2.1-0.2,2.3-1.5h0.4l-0.2,1.9c-1.1,0-3.1,0-5.1,0c-0.3,0-0.6,0-0.8,0
		V119.8z"/>
	<path class="st0" d="M73,119.8c0.7,0,0.9-0.3,0.9-0.9v-5.2c0-0.6-0.2-0.9-0.9-0.9v-0.3c0.9,0,1.2,0,1.6,0s0.7,0,1.6,0v0.3
		c-0.7,0-0.9,0.3-0.9,0.9v5.2c0,0.6,0.3,0.7,1.2,0.7c1.4,0,2.1-0.2,2.3-1.5h0.4l-0.2,1.9c-1.1,0-3.1,0-5.1,0c-0.3,0-0.6,0-0.8,0
		V119.8z"/>
	<path class="st0" d="M79.7,119.8c0.7,0,0.9-0.1,1.5-1.6l2.3-5.6h0.2l2.9,6.4c0.3,0.6,0.5,0.8,1.1,0.8v0.3c-0.7,0-1.2,0-1.6,0
		c-0.4,0-0.9,0-1.6,0v-0.3c0.6,0,0.8-0.1,0.8-0.4c0-0.1-0.1-0.3-0.3-0.9l-0.4-1h-2.4l-0.3,0.9c-0.3,0.7-0.3,0.9-0.3,1
		c0,0.3,0.1,0.4,0.8,0.4v0.3c-0.9,0-1,0-1.3,0c-0.3,0-0.4,0-1.3,0V119.8z M84.4,117.2l-1.1-2.7l-1,2.7H84.4z"/>
	<path class="st0" d="M88.8,119.8c0.7,0,0.9-0.3,0.9-0.9v-5.2c0-0.6-0.2-0.9-0.9-0.9v-0.3c0.5,0,0.9,0,1.3,0c0.7,0,1.4,0,2.1,0
		c1.9,0,2.4,0.9,2.4,2c0,0.7-0.4,1.5-1.5,1.9l1.3,2.4c0.5,0.9,0.7,1.1,1.3,1.2v0.3c-0.2,0-0.3,0-0.5,0c-1.4,0-2-0.5-2.6-1.8
		l-0.4-0.9c-0.4-0.9-0.6-1-1.3-1v2.4c0,0.6,0.2,0.9,0.9,0.9v0.3c-0.9,0-1.2,0-1.6,0c-0.3,0-0.7,0-1.6,0V119.8z M91,116.2
		c0.2,0,0.5,0.1,0.7,0.1c1,0,1.5-0.4,1.5-1.5c0-0.8-0.4-1.9-1.8-1.9c-0.2,0-0.3,0-0.5,0V116.2z"/>
	<path class="st0" d="M100.7,112.4c2.3,0,4.3,1.6,4.3,3.9c0,2.1-1.6,3.9-4.2,3.9c-2.3,0-4.3-1.6-4.3-3.9
		C96.5,114.3,98.1,112.4,100.7,112.4 M101.1,119.9c0.7,0,2.3-0.4,2.3-3.1c0-2.1-1.2-4-3-4c-0.7,0-2.3,0.4-2.3,3.1
		C98.1,118,99.2,119.9,101.1,119.9"/>
	<path class="st0" d="M105.2,112.6c0.9,0,1.4,0,1.9,0c0.5,0,1,0,1.6,0v0.3h-0.3c-0.4,0-0.6,0.1-0.6,0.4c0,0.1,0,0.2,0.4,1l1.1,2.5
		l1.4-2.8c0.2-0.3,0.2-0.5,0.2-0.7c0-0.4-0.3-0.4-0.8-0.4v-0.3c0.5,0,0.9,0,1.2,0s0.7,0,1.2,0v0.3c-0.5,0-0.7,0.2-0.9,0.5l-2.1,4
		v1.6c0,0.6,0.2,0.9,0.9,0.9v0.3c-0.9,0-1.2,0-1.6,0c-0.3,0-0.7,0-1.6,0v-0.3c0.7,0,0.9-0.3,0.9-0.9v-1.6l-1.7-3.8
		c-0.3-0.6-0.5-0.7-1.2-0.8V112.6z"/>
	<polygon class="st1" points="27.6,70.7 58.5,81.4 67,81.4 67,70.7 	"/>
	<polygon class="st1" points="109.1,70.7 69.7,70.7 69.7,81.4 78.3,81.4 	"/>
	<polygon class="st1" points="33.9,59.6 60.1,68.8 67,68.8 67,59.6 	"/>
	<polygon class="st1" points="76.7,68.8 102.9,59.6 69.7,59.6 69.7,68.8 	"/>
	<polygon class="st1" points="39.2,49.9 61.4,57.7 67,57.7 67,49.9 	"/>
	<polygon class="st1" points="75.3,57.7 97.6,49.9 69.7,49.9 69.7,57.7 	"/>
	<polygon class="st1" points="74.1,48 93.1,41.4 69.7,41.4 69.7,48 	"/>
	<polygon class="st1" points="43.7,41.4 62.6,48 67,48 67,41.4 	"/>
	<polygon class="st1" points="73.2,39.5 89.3,33.9 69.7,33.9 69.7,39.5 	"/>
	<polygon class="st1" points="47.5,33.9 63.6,39.5 67,39.5 67,33.9 	"/>
	<polygon class="st1" points="72.3,32 86,27.2 69.7,27.2 69.7,32 	"/>
	<polygon class="st1" points="50.7,27.2 64.4,32 67,32 67,27.2 	"/>
	<polygon class="st1" points="71.6,25.3 83.2,21.2 69.7,21.2 69.7,25.3 	"/>
	<polygon class="st1" points="53.5,21.2 65.1,25.3 67,25.3 67,21.2 	"/>
	<polygon class="st1" points="55.9,15.8 65.7,19.3 67,19.3 67,15.8 	"/>
	<polygon class="st1" points="71,19.3 80.9,15.8 69.7,15.8 69.7,19.3 	"/>
	<polygon class="st1" points="70.5,13.9 78.9,11 69.7,11 69.7,13.9 	"/>
	<polygon class="st1" points="57.9,11 66.3,13.9 67,13.9 67,11 	"/>
	<polygon class="st1" points="75.6,6.7 69.7,6.7 69.7,8.8 	"/>
	<polygon class="st1" points="61.2,6.7 67,6.7 67,8.8 	"/>
	<path class="st0" d="M7,101.2h0.8c0.5,2.5,2.6,3.6,4.1,3.6c2.1,0,3.1-1.4,3.1-2.5c0-3.4-7.9-3.3-7.9-8.1c0-1.1,0.6-4.5,5.4-4.5
		c1.2,0,2.8,0.1,4,0.6l0.1,3.8H16c-0.2-2.2-1.7-3.6-3.9-3.6c-1.7,0-2.8,1.1-2.8,2.3c0,3.1,8,3.4,8,8.2c0,2.5-1.8,4.6-5.4,4.6
		c-1.4,0-3.2-0.3-4.7-0.7L7,101.2z"/>
	<path class="st0" d="M19.8,104.7c1.5-0.1,1.9-0.3,3.1-3.2L27.6,90H28l5.8,13c0.6,1.3,1.1,1.6,2.2,1.6v0.6c-1.5,0-2.4-0.1-3.3-0.1
		c-0.9,0-1.8,0-3.3,0.1v-0.6c1.2,0,1.6-0.2,1.6-0.8c0-0.2-0.2-0.7-0.6-1.8l-0.9-2h-4.9l-0.6,1.7c-0.5,1.5-0.6,1.8-0.6,2
		c0,0.6,0.3,0.8,1.6,0.8v0.6c-1.9-0.1-2.1-0.1-2.6-0.1c-0.5,0-0.8,0-2.6,0.1V104.7z M29.2,99.3l-2.3-5.5l-2,5.5H29.2z"/>
	<path class="st0" d="M38.9,104.7c1.4,0,1.8-0.5,1.8-1.7V92.4c0-1.2-0.4-1.7-1.8-1.7V90c1,0,1.9,0.1,2.7,0.1c1.4,0,2.8-0.1,4.2-0.1
		c3.8,0,4.9,1.9,4.9,4c0,1.5-0.9,3.1-3,3.8l2.7,5c1,1.8,1.5,2.2,2.7,2.4v0.5c-0.3,0-0.6,0-1,0c-2.9,0-4.1-1-5.3-3.6l-0.8-1.8
		c-0.9-1.9-1.2-2.1-2.7-2.1v4.8c0,1.2,0.4,1.7,1.8,1.7v0.6c-1.7,0-2.5-0.1-3.1-0.1s-1.4,0-3.1,0.1V104.7z M43.4,97.4
		c0.4,0.1,1,0.2,1.4,0.2c1.9,0,3.1-0.9,3.1-3c0-1.6-0.8-3.9-3.6-3.9c-0.4,0-0.6,0-0.9,0.1V97.4z"/>
	<path class="st0" d="M70.2,94.5h-0.6c-0.2-2.3-2-3.9-5.4-3.9c-4.1,0-5.8,2.9-5.8,6.2c0,4.9,3,7.9,6.5,7.9c1,0,2-0.4,2.8-0.9v-3.1
		c0-1.1-0.3-1.4-1.6-1.4v-0.6c0.7,0,1.6,0.1,3,0.1c1.4,0,2.2-0.1,2.9-0.1v0.6c-1.3,0-1.6,0.7-1.6,1.6v3.4c-1,0.5-3.5,1.4-6.5,1.4
		c-7.5,0-8.6-5.8-8.6-8.1c0-3.5,2.5-7.8,9.2-7.8c2.5,0,4.6,0.6,5.7,0.9V94.5z"/>
	<path class="st0" d="M82.8,89.7c4.7,0,8.8,3.3,8.8,8c0,4.2-3.2,8-8.5,8c-4.7,0-8.8-3.3-8.8-8C74.3,93.5,77.5,89.7,82.8,89.7
		 M83.6,104.8c1.4,0,4.7-0.8,4.7-6.2c0-4.2-2.4-8.1-6.1-8.1c-1.4,0-4.7,0.8-4.7,6.2C77.5,100.9,79.9,104.8,83.6,104.8"/>
	<path class="st0" d="M102.3,89.7c4.7,0,8.8,3.3,8.8,8c0,4.2-3.2,8-8.5,8c-4.7,0-8.8-3.3-8.8-8C93.8,93.5,97,89.7,102.3,89.7
		 M103.2,104.8c1.4,0,4.7-0.8,4.7-6.2c0-4.2-2.4-8.1-6.1-8.1c-1.4,0-4.7,0.8-4.7,6.2C97,100.9,99.4,104.8,103.2,104.8"/>
	<path class="st0" d="M113.5,104.7c1.4,0,1.8-0.5,1.8-1.7V92.4c0-1.2-0.4-1.7-1.8-1.7V90c0.7,0,1.5,0.1,2.5,0.1
		c1.9,0,3.8-0.1,5.6-0.1c5.5,0,8.1,3.3,8.1,7.9c0,2.3-1.3,7.5-8.8,7.5c-1.6,0-3.3-0.1-5.1-0.1c-0.9,0-1.7,0-2.3,0.1V104.7z
		 M118.1,103c0,1.1,0.5,1.4,2.1,1.4c3.4,0,6.4-1.5,6.4-6.3c0-3-1-5-2.3-6.2c-1-0.9-2.2-1.1-4.7-1.1h-1.5V103z"/>
</g>
</svg>
