<svg xmlns="http://www.w3.org/2000/svg" viewBox="0 0 334.72 357.31"><g data-name="Layer 2"><g data-name="Layer 1"><g data-name="&lt;Group&gt;"><path data-name="&lt;Path&gt;" d="M56.26 174.4l84.11 29.34h23.34V174.4H56.26zm222.2 0H171.01v29.34h23.34l84.11-29.34zM73.25 144.24l71.5 24.94h18.96v-24.94H73.25zm116.73 24.94l71.49-24.94h-90.46v24.94h18.97zM87.7 117.81l60.77 21.2h15.24v-21.2H87.7zm98.56 21.2l60.77-21.2h-76.02v21.2h15.25zm-3.16-26.42l51.65-18.02h-63.74v18.02h12.09zM99.97 94.57l51.66 18.02h12.08V94.57H99.97zm80.44-5.22l43.9-15.32h-53.3v15.32h9.4zm-70-15.32l43.91 15.32h9.39V74.03h-53.3zm67.72-5.22l37.31-13.02h-44.43v13.02h7.12zm-58.85-13.02l37.32 13.02h7.11V55.79h-44.43zm56.9-5.22l31.73-11.07h-36.9v11.07h5.17zM126.82 39.5l31.72 11.07h5.17V39.5h-36.89zm6.41-14.63l26.96 9.41h3.52v-9.41h-30.48zm41.3 9.41l26.97-9.41h-30.49v9.41h3.52zm-1.4-14.63l22.92-8h-25.04v8h2.12zm-34.45-8l22.91 8h2.12v-8h-25.03zM187.04 0h-16.03v5.59L187.04 0zm-39.35.19h16.02v5.6L147.69.19z" fill="#ffcf01"/></g><path d="M0 257.56h2.29a12 12 0 0 0 11.24 9.88c5.76 0 8.58-3.7 8.58-6.94 0-9.41-21.46-8.93-21.46-22 0-3 1.7-12.23 14.82-12.23a35.18 35.18 0 0 1 10.88 1.53l.35 10.41h-2.18c-.64-6-4.53-9.71-10.76-9.71-4.76 0-7.59 3.06-7.59 6.24 0 8.58 21.82 9.35 21.82 22.46 0 6.94-4.94 12.47-14.7 12.47a51.37 51.37 0 0 1-12.82-1.93zm34.93 9.59c4.06-.24 5.18-.82 8.41-8.7l12.94-31.23h1l15.93 35.58c1.53 3.41 2.94 4.35 6 4.35v1.76c-4-.06-6.64-.17-9-.17s-4.89.11-9 .17v-1.76c3.29 0 4.23-.59 4.23-2.18 0-.64-.41-1.88-1.64-4.82l-2.36-5.53H48l-1.71 4.77c-1.47 4.11-1.59 4.94-1.59 5.53 0 1.52.71 2.17 4.35 2.23v1.76c-5-.17-5.64-.17-7-.17s-2.06 0-7.06.17zm25.58-14.76l-6.35-15.11-5.41 15.11zM87 267.15c3.82-.06 4.88-1.47 4.88-4.76v-28.82c0-3.29-1.06-4.7-4.88-4.76V227c2.76.06 5.11.18 7.29.18 3.82 0 7.7-.18 11.52-.18 10.24 0 13.47 5.12 13.47 10.88 0 4-2.47 8.47-8.17 10.23l7.35 13.53c2.64 4.88 4.06 6 7.41 6.47v1.41c-.89.06-1.77.12-2.71.12-7.82 0-11-2.71-14.35-9.71l-2.29-4.88c-2.47-5.23-3.29-5.64-7.23-5.7v13c0 3.29 1 4.7 4.88 4.76v1.76c-4.71-.11-6.71-.17-8.59-.17s-3.88.06-8.58.17zm12.29-19.94a20.67 20.67 0 0 0 3.88.41c5.29 0 8.47-2.41 8.47-8.11 0-4.29-2.18-10.7-9.83-10.7a11.21 11.21 0 0 0-2.52.23zm73.01-7.88h-1.53c-.41-6.17-5.46-10.58-14.64-10.58-11.11 0-15.82 7.88-15.82 16.82 0 13.29 8.24 21.64 17.64 21.64a12.86 12.86 0 0 0 7.65-2.59v-8.53c0-2.94-.88-3.82-4.47-3.82v-1.76c1.94.06 4.29.23 8.06.23s6.05-.17 8-.23v1.76c-3.47 0-4.41 1.82-4.41 4.41v9.18a43.64 43.64 0 0 1-17.78 3.82c-20.35 0-23.35-15.76-23.35-22.17 0-9.53 6.76-21.23 25-21.23a53.07 53.07 0 0 1 15.64 2.47zm34.41-13.05c12.7 0 23.93 8.88 23.93 21.7 0 11.41-8.76 21.7-23.17 21.7-12.7 0-23.93-8.88-23.93-21.7 0-11.41 8.76-21.7 23.17-21.7zm2.29 41.16c3.76 0 12.94-2.29 12.94-16.87 0-11.41-6.47-22.06-16.76-22.06-3.77 0-12.94 2.3-12.94 16.88 0 11.41 6.47 22.05 16.76 22.05zm50.92-41.16c12.71 0 23.94 8.88 23.94 21.7 0 11.41-8.77 21.7-23.17 21.7-12.71 0-23.94-8.88-23.94-21.7 0-11.41 8.76-21.7 23.17-21.7zm2.3 41.16c3.76 0 12.93-2.29 12.93-16.87 0-11.41-6.47-22.06-16.76-22.06-3.76 0-12.93 2.3-12.93 16.88 0 11.41 6.46 22.05 16.76 22.05zm28.34-.29c3.82-.06 4.88-1.47 4.88-4.76v-28.82c0-3.29-1.06-4.7-4.88-4.76V227c1.82.12 4.06.18 6.88.18 5.18 0 10.35-.18 15.29-.18 14.94 0 22 9.12 22 21.53 0 6.29-3.41 20.34-24.05 20.34-4.47 0-9.11-.17-13.82-.17-2.47 0-4.64.06-6.29.17zm12.29-4.59c0 3.12 1.35 3.88 5.76 3.88 9.35 0 17.41-4.05 17.41-17.11 0-8.17-2.65-13.76-6.35-16.94-2.82-2.41-5.88-3.11-12.7-3.11h-4.12zM55.22 308.71c1.85 0 2.36-.71 2.36-2.31v-14c0-1.59-.51-2.28-2.36-2.31v-.85c1.33 0 2.28.08 4 .08 4.7 0 8.29-.05 10.72-.08l.31 4.93h-1c-.6-3.48-1.79-3.85-5.73-3.85a17.44 17.44 0 0 0-2.39.11v8.13h2.65c2.45 0 3.05-.57 3.16-2.74h1c0 .83-.08 1.94-.08 3.36s0 2.17.08 3.28H67c-.14-2.25-1.34-2.82-3.59-2.82h-2.24v6.72c0 1.6.51 2.28 2.37 2.31v.86c-2.28-.09-3.25-.09-4.16-.09s-1.88 0-4.16.09zm29.22-19.8c6.16 0 11.6 4.3 11.6 10.51 0 5.53-4.25 10.52-11.23 10.52-6.15 0-11.6-4.31-11.6-10.52 0-5.53 4.25-10.51 11.23-10.51zm1.11 19.95c1.83 0 6.27-1.12 6.27-8.18 0-5.53-3.13-10.69-8.12-10.69-1.82 0-6.27 1.11-6.27 8.18 0 5.53 3.14 10.69 8.12 10.69zm35.3-18.73c-1.85 0-2.33.72-2.36 2.31l-.12 9.15c-.05 4.16-1.79 8.35-8.06 8.35-5.27 0-9.29-2.28-9.29-8.38v-9.12c0-1.59-.51-2.28-2.36-2.31v-.85c2.28.08 3.24.08 4.16.08s1.88 0 4.16-.08v.85c-1.86 0-2.37.72-2.37 2.31v9.83c0 4.28 2.71 6.59 5.9 6.59 5 0 6.72-3.2 6.72-8.16v-4l-.09-4.14c0-1.71-.4-2.45-2.48-2.45v-.85c1.06 0 2.2.08 3.08.08s2-.05 3.16-.08zm2.99 18.58c1.85 0 2.36-.71 2.36-2.31v-14c0-1.59-.51-2.28-2.36-2.31v-.85c1.16 0 2.28.08 3.07.08.63 0 1.46-.05 2.28-.08l13.43 15-.09-11.72c0-1.71-.4-2.45-2.45-2.45v-.85c1 0 2.19.08 3.08.08s2.05-.05 3.16-.08v.85c-1.85 0-2.37.72-2.37 2.31v17.33h-1.14l-15.41-17 .23 13.4c0 2.11.57 2.39 2.36 2.56v.86c-.85-.06-2.39-.09-3.08-.09s-2.22 0-3.07.09zm26.47 0c1.86 0 2.37-.71 2.37-2.31v-14c0-1.59-.51-2.28-2.37-2.31v-.85c.89.06 2 .08 3.34.08 2.51 0 5-.08 7.41-.08 7.23 0 10.65 4.41 10.65 10.43 0 3.05-1.65 9.86-11.65 9.86-2.17 0-4.42-.09-6.7-.09-1.19 0-2.25 0-3.05.09zm6-2.22c0 1.51.65 1.88 2.79 1.88 4.53 0 8.44-2 8.44-8.29 0-4-1.29-6.67-3.08-8.21-1.37-1.17-2.85-1.51-6.16-1.51h-2zm17.22 2.22c2-.11 2.51-.4 4.08-4.21l6.27-15.14h.48l7.73 17.24c.74 1.66 1.42 2.11 2.9 2.11v.86c-2 0-3.22-.09-4.36-.09s-2.36.06-4.36.09v-.86c1.6 0 2-.28 2-1a8.61 8.61 0 0 0-.79-2.34l-1.14-2.68h-6.53L179 305a9.08 9.08 0 0 0-.76 2.68c0 .74.34 1.05 2.1 1.08v.86c-2.45-.09-2.73-.09-3.42-.09s-1 0-3.42.09zm12.4-7.15l-3.08-7.32-2.62 7.32zm15.07 7.15c1.86 0 2.37-.71 2.37-2.31v-15.7h-2.51c-2.28 0-3.79.63-4 4.22h-1.05l.17-5.64 9.14.08c3.05 0 6.1-.05 9.15-.08l.17 5.64h-1c-.17-3.59-1.68-4.22-4-4.22H207v15.7c0 1.6.51 2.28 2.36 2.31v.86c-2.28-.06-3.24-.09-4.16-.09s-1.88 0-4.16.09zm18.32 0c1.85 0 2.36-.71 2.36-2.31v-14c0-1.59-.51-2.28-2.36-2.31v-.85c2.28.06 3.25.08 4.16.08s1.88 0 4.16-.08v.85c-1.85 0-2.37.72-2.37 2.31v14c0 1.6.52 2.28 2.37 2.31v.86c-2.28-.06-3.25-.09-4.16-.09s-1.88 0-4.16.09zm23.35-19.8c6.15 0 11.6 4.3 11.6 10.51 0 5.53-4.25 10.52-11.23 10.52-6.16 0-11.6-4.31-11.6-10.52 0-5.53 4.25-10.51 11.23-10.51zm1.11 19.95c1.82 0 6.27-1.12 6.27-8.18 0-5.53-3.14-10.69-8.12-10.69-1.83 0-6.27 1.11-6.27 8.18 0 5.53 3.13 10.69 8.12 10.69zm13.22-.15c1.85 0 2.36-.71 2.36-2.31v-14c0-1.59-.51-2.28-2.36-2.31v-.85c1.16 0 2.28.08 3.07.08.63 0 1.46-.05 2.28-.08l13.42 15-.08-11.72c0-1.71-.4-2.45-2.45-2.45v-.85c1.05 0 2.19.08 3.08.08s2-.05 3.16-.08v.85c-1.85 0-2.37.72-2.37 2.31v17.33H276l-15.41-17 .23 13.4c0 2.11.57 2.39 2.36 2.56v.86c-.85-.06-2.39-.09-3.08-.09s-2.22 0-3.07.09zM0 356.4h.41c1 0 1.4-.36 1.4-1.73v-10.34c0-1.38-.43-1.74-1.4-1.74H0V342c.74 0 1.76.06 2.71.06 1.14 0 2.31-.06 3.45-.06 3.41 0 4.47 2.33 4.47 4 0 1.89-1.14 4.05-5 4.05-.66 0-1.29-.07-1.95-.13v4.28c0 2 .36 2.24 1.21 2.24h.61v.56c-.93 0-1.82-.07-2.75-.07s-2 0-2.71.07zm3.64-7.71a4.83 4.83 0 0 0 2.18.51 2.64 2.64 0 0 0 2.78-2.84c0-2.47-1.36-3.77-3.62-3.77a12 12 0 0 0-1.34.09zM11 356.4h.26c1.16 0 1.63-.53 2.28-2.28l4.85-12.75h.4l5.45 13c.51 1.23 1.16 2 2.14 2h.44v.63h-2.93c-1.11 0-2.14 0-2.92.07v-.64h.53c.68 0 1.08-.23 1.08-.67a3.48 3.48 0 0 0-.3-1.06l-1.54-3.82H15.8l-1.12 3.35a5.26 5.26 0 0 0-.36 1.53c0 .38.21.67.87.67h.46v.57c-.74 0-1.61-.07-2.6-.07-.81 0-1.59 0-2.1.07zm7.1-12.15l-2 5.8h4.34zm13.14 12.15h.49c1.14 0 1.35-.27 1.35-2v-11.55h-2.41c-2.27 0-2.54 1.31-2.67 3h-.72V342c.63 0 4 .06 6.73.06 2.54 0 6 0 6.74-.06v3.85H40c-.13-1.65-.4-3-2.67-3H35v11.54c0 1.74.21 2 1.35 2h.49v.61H34c-1.07 0-2 0-2.77.07zm12.36 0h.4c1 0 1.4-.36 1.4-1.73v-10.34c0-1.38-.42-1.74-1.4-1.74h-.4V342c.74 0 1.76.06 2.71.06s1.82 0 2.75-.06v.63h-.61c-.85 0-1.21.24-1.21 2.25v3.92H56v-3.92c0-2-.36-2.25-1.21-2.25h-.61V342c.93 0 1.82.06 2.75.06s2 0 2.71-.06v.63h-.38c-1 0-1.4.36-1.4 1.74v10.34c0 1.37.43 1.73 1.4 1.73h.38v.56c-.74 0-1.76-.07-2.71-.07s-1.82 0-2.75.07v-.64h.61c.85 0 1.21-.23 1.21-2.24v-4.51h-8.76v4.51c0 2 .36 2.24 1.21 2.24h.61v.64c-.93 0-1.82-.07-2.75-.07s-2 0-2.71.07zM62.32 342c.8 0 1.8.06 2.75.06s1.84 0 2.75-.06v.63h-.38c-.51 0-1 .17-1 .81a4.84 4.84 0 0 0 .27 1.08l3.17 9.48 3.58-12.35h.72l3.85 12.25h.05l2.69-8.6a8.2 8.2 0 0 0 .42-1.87c0-.68-.34-.87-1-.87h-.49V342c.63 0 1.52.06 2.31.06s1.54 0 2.28-.06v.63H84c-.82 0-1.33.28-1.69 1.44l-4.24 13.28h-.72L73.48 345l-3.63 12.28h-.72l-4.57-13.18c-.42-1.23-1.06-1.51-1.82-1.51h-.42zm21.38 14.4h.3c1.17 0 1.63-.53 2.29-2.28l4.85-12.75h.4l5.44 13c.51 1.23 1.17 2 2.14 2h.45v.63c-.81 0-1.78-.07-2.88-.07s-2.14 0-2.93.07v-.64h.53c.68 0 1.08-.23 1.08-.67a3.8 3.8 0 0 0-.29-1.06l-1.55-3.82h-4.98l-1.13 3.35a5.6 5.6 0 0 0-.36 1.53c0 .38.22.67.87.67h.47v.64c-.74 0-1.61-.07-2.61-.07-.8 0-1.59 0-2.09.07zm7.09-12.15l-2 5.8h4.34zm13.4 12.15h.51c1.06 0 1.29-.4 1.29-1.5v-3.35l-4.06-7.28c-.83-1.49-1.1-1.68-2.14-1.68h-.19V342c.91 0 1.8.06 2.67.06s1.8 0 2.69-.06v.63h-.38c-.45 0-.79.15-.79.68a3.54 3.54 0 0 0 .47 1.25l3.13 5.66 2.92-5.6a4.72 4.72 0 0 0 .58-1.5c0-.36-.26-.49-.83-.49h-.4V342c.87 0 1.44.06 2.1.06s1.41 0 2.09-.06v.63h-.53c-.87 0-1.06.28-1.71 1.51l-3.75 7v3.79c0 1.25.46 1.5 1.29 1.5h.42v.57c-.89 0-1.8-.07-2.69-.07s-1.9 0-2.69.07zm20.66-7.94h-2.1l.81-.89h1.5l.4-1.93 1.68-.42-.47 2.35h2.22l-.1.89h-2.33l-1.25 5.74a11.09 11.09 0 0 0-.28 1.4.47.47 0 0 0 .47.53c.63 0 1.4-1.27 1.69-1.76l.53.28c-.74 1.31-1.93 2.66-3.11 2.66-.74 0-1.19-.53-1.19-1.37a8.69 8.69 0 0 1 .28-1.82zm10.28-1.1a3 3 0 0 1 3.31 3.2c0 2.84-2.23 6.75-5.49 6.75a3.31 3.31 0 0 1-3.18-3.62c0-3.41 2.86-6.33 5.36-6.33zm-.08.63c-2.18 0-3.58 3.75-3.58 6.13 0 1.8.51 2.56 1.54 2.56 2.52 0 3.73-5.21 3.73-6.61 0-1.8-.97-2.07-1.69-2.07zm12.77 8.41h.38c1 0 1.4-.36 1.4-1.73v-10.34c0-1.38-.42-1.74-1.4-1.74h-.38V342c.74 0 1.76.06 2.71.06s1.82 0 2.71-.06v.63h-.38c-1 0-1.4.36-1.4 1.74v10.34c0 1.37.43 1.73 1.4 1.73h.38v.56c-.89 0-1.78-.07-2.71-.07s-2 0-2.71.07zm8.61 0h.34c1.12 0 1.31-.46 1.38-2.69.08-2.79.12-6.82.12-9.27 0-1.53-.46-1.85-1.52-1.85h-.6V342c.58 0 1.21.06 1.87.06s1.14 0 1.67-.06l10 12.26-.13-8.68c0-2.44-.36-3-1.5-3h-.26V342c.66 0 1.51.06 2.29.06s1.53 0 2.29-.06v.63h-.34c-.66 0-1.27.24-1.33 2.29l-.39 12.35h-.63l-10.49-12.92c0 3.28 0 6.55.13 9.83 0 1.74.38 2.22 1.38 2.22h.42v.6c-.7 0-1.55-.07-2.33-.07s-1.67 0-2.33.07zm18.91 0h.39c1 0 1.39-.36 1.39-1.73v-10.34c0-1.38-.42-1.74-1.39-1.74h-.39V342c.74 0 1.76.06 2.71.06 1.7 0 3.41-.06 5.11-.06a7.43 7.43 0 0 1 7.73 7.39c0 3.09-2 7.69-8.51 7.69-1.3 0-2.82-.07-4.33-.07-1 0-2 0-2.71.07zm3.65-2.09c0 1.65.67 1.92 3.09 1.92 3.7 0 6.78-1.61 6.78-6.33 0-3.09-1.93-7.22-7.18-7.22-.89 0-1.78.08-2.69.17zm14.81 2.09h.38c1 0 1.39-.36 1.39-1.73v-10.34c0-1.38-.42-1.74-1.39-1.74h-.38V342c.67 0 3.09.06 5.21.06 2.49 0 3.49 0 5-.06 0 1.31.09 2.46.19 3.6h-.59c-.21-1.48-.36-2.8-4.11-2.8h-2v6h1.84c2.58 0 2.67-.45 2.71-1.7h.59v4.01H202c-.1-1.06-.13-1.51-2.52-1.51h-2v5.09c0 1.27.46 1.58 1.82 1.58h.57c3.56 0 4.49-.67 4.83-3h.59c-.15 1.32-.27 2.55-.42 3.84-1.27 0-3.54-.07-5.82-.07-2.63 0-4.54 0-5.21.07zm14.5 0h.38c1 0 1.4-.36 1.4-1.73v-10.34c0-1.38-.43-1.74-1.4-1.74h-.38V342c.74 0 1.75.06 2.71.06 1.14 0 2.31-.06 3.45-.06 3.41 0 4.47 2.33 4.47 4 0 1.89-1.14 4.05-5 4.05-.66 0-1.29-.07-1.95-.13v4.28c0 2 .36 2.24 1.21 2.24h.61v.56c-.93 0-1.82-.07-2.75-.07s-2 0-2.71.07zm3.64-7.71a4.8 4.8 0 0 0 2.18.51 2.64 2.64 0 0 0 2.78-2.84c0-2.47-1.36-3.77-3.63-3.77a11.94 11.94 0 0 0-1.33.09zm9.33 7.71h.38c1 0 1.4-.36 1.4-1.73v-10.34c0-1.38-.43-1.74-1.4-1.74h-.38V342c.68 0 3.09.06 5.21.06 2.5 0 3.49 0 5-.06.05 1.31.09 2.46.2 3.6h-.6c-.21-1.48-.36-2.8-4.11-2.8h-2v6h1.84c2.59 0 2.67-.45 2.71-1.7h.6c0 .49-.05 1.15-.05 2.08s0 1.5.05 1.93h-.6c-.1-1.06-.12-1.51-2.52-1.51h-2v5.09c0 1.27.47 1.58 1.82 1.58h.57c3.56 0 4.49-.67 4.83-3h.6c-.15 1.32-.28 2.55-.43 3.84-1.27 0-3.53-.07-5.82-.07-2.63 0-4.53 0-5.21.07zm14.49 0h.34c1.12 0 1.31-.46 1.37-2.69.09-2.79.13-6.82.13-9.27 0-1.53-.46-1.85-1.52-1.85h-.6V342c.57 0 1.21.06 1.87.06s1.14 0 1.67-.06l10 12.26-.13-8.68c0-2.44-.36-3-1.5-3h-.26V342c.66 0 1.51.06 2.29.06s1.52 0 2.29-.06v.63h-.34c-.66 0-1.27.24-1.34 2.29l-.38 12.35H249l-10.51-12.88c0 3.28 0 6.55.13 9.83 0 1.74.38 2.22 1.37 2.22h.43v.56c-.7 0-1.55-.07-2.33-.07s-1.67 0-2.33.07zm18.91 0h.38c1 0 1.4-.36 1.4-1.73v-10.34c0-1.38-.42-1.74-1.4-1.74h-.38V342c.74 0 1.76.06 2.71.06 1.7 0 3.41-.06 5.11-.06a7.43 7.43 0 0 1 7.73 7.39c0 3.09-2 7.69-8.52 7.69-1.29 0-2.81-.07-4.32-.07-.95 0-2 0-2.71.07zm3.65-2.09c0 1.65.67 1.92 3.09 1.92 3.7 0 6.77-1.61 6.77-6.33 0-3.09-1.92-7.22-7.18-7.22-.88 0-1.77.08-2.68.17zm14.8 2.09h.39c1 0 1.39-.36 1.39-1.73v-10.34c0-1.38-.42-1.74-1.39-1.74h-.39V342c.68 0 3.1.06 5.21.06 2.5 0 3.5 0 5-.06 0 1.31.09 2.46.19 3.6h-.59c-.21-1.48-.36-2.8-4.11-2.8h-2v6h1.84c2.58 0 2.67-.45 2.71-1.7h.59v4.01h-.59c-.1-1.06-.13-1.51-2.52-1.51h-2v5.09c0 1.27.46 1.58 1.82 1.58h.57c3.56 0 4.49-.67 4.83-3h.59c-.15 1.32-.27 2.55-.42 3.84-1.27 0-3.54-.07-5.83-.07-2.62 0-4.53 0-5.21.07zm14.5 0h.38c1.13 0 1.32-.46 1.38-2.69.09-2.79.13-6.82.13-9.27 0-1.53-.47-1.85-1.53-1.85h-.59V342c.57 0 1.21.06 1.86.06s1.15 0 1.68-.06l10 12.26-.12-8.68c0-2.44-.36-3-1.51-3h-.3V342c.66 0 1.5.06 2.29.06s1.52 0 2.29-.06v.63h-.34c-.66 0-1.27.24-1.34 2.29l-.38 12.35h-.64l-10.5-12.88c0 3.28 0 6.55.12 9.83 0 1.74.39 2.22 1.38 2.22h.42v.56c-.69 0-1.54-.07-2.32-.07s-1.68 0-2.33.07zM320 345.75h-.34c-.55-1.1-1.57-3.18-5.57-3.18-4.3 0-5.68 4-5.68 7.08 0 5 3.58 6.77 5.78 6.77a6.9 6.9 0 0 0 5.85-3.13h.15v1.61a8 8 0 0 1-5.83 2.41c-4.8 0-8.07-3-8.07-7.28 0-4.09 2.86-8.35 7.88-8.35a16.61 16.61 0 0 1 4.85.89 6.41 6.41 0 0 0 1.06.3zm3.24 10.65h.38c1 0 1.4-.36 1.4-1.73v-10.34c0-1.38-.43-1.74-1.4-1.74h-.38V342c.68 0 3.09.06 5.21.06 2.5 0 3.49 0 5-.06.05 1.31.09 2.46.2 3.6H333c-.21-1.48-.36-2.8-4.11-2.8h-2v6h1.84c2.59 0 2.67-.45 2.72-1.7h.55v4.01h-.59c-.11-1.06-.13-1.51-2.53-1.51h-2v5.09c0 1.27.47 1.58 1.82 1.58h.57c3.56 0 4.49-.67 4.83-3h.6c-.15 1.32-.28 2.55-.43 3.84-1.27 0-3.53-.07-5.82-.07-2.63 0-4.53 0-5.21.07z" fill="#00467f"/><path fill="none" stroke="#ffcf01" stroke-miterlimit="10" stroke-width="2" d="M55.17 325.93h224.38"/></g></g></svg>